# File created by Blade
# Date/Time:  Tue Sep 23 19:06:47 2014
# Frame Rate: 120.000 fps
#------------------------------------------------------
:FULLY-SPECIFIED
:DEGREES
1045
root 0.058037 32.328203 1.886045 35.351205 5.665709 -0.366792
Spine -39.307559 -3.436500 5.910195
Head 1.436828 -2.906388 -6.833553
LeftShoulder -22.644654 38.592204 23.373730
LeftArm 54.025178 -48.760617 -52.635542
LeftForeArm 101.447438 -0.000000 -15.798987
LeftHand -11.818941 -0.000000 61.886433
LeftHandThumb1 -26.253704 0.000000 33.147579
RightShoulder -20.315438 -37.155446 -25.801456
RightArm 41.490450 27.350717 39.487513
RightForeArm 9.551038 -0.000000 -7.137053
RightHand 2.874336 -0.000000 4.648472
RightHandThumb1 -24.326973 -0.000000 -32.862282
LeftUpLeg -27.039144 2.950109 3.594891
LeftLeg -1.261220 -0.000000 0.000000
LeftFoot -7.051240 0.593327 -3.599044
LeftToeBase 3.134968 -0.000000 -0.000000
RightUpLeg -26.022678 -6.209289 4.086686
RightLeg -3.211341 -0.000000 0.000000
RightFoot -7.652240 -6.159758 2.913597
RightToeBase 8.943140 -0.000000 -0.000000
1046
root 0.077951 32.331603 1.865628 35.275944 5.638777 -0.359766
Spine -39.308641 -3.394422 5.826473
Head 1.548110 -2.902835 -6.750063
LeftShoulder -22.546264 38.647658 23.437260
LeftArm 54.311233 -48.580990 -52.916926
LeftForeArm 101.310048 -0.000000 -15.837768
LeftHand -11.486129 0.000000 61.664881
LeftHandThumb1 -26.253704 0.000000 33.147579
RightShoulder -20.245815 -37.096309 -25.782554
RightArm 41.609352 27.345662 39.639570
RightForeArm 9.602814 0.000000 -7.182176
RightHand 3.038634 -0.000000 4.829999
RightHandThumb1 -24.326973 -0.000000 -32.862282
LeftUpLeg -26.995882 2.940345 3.547601
LeftLeg -1.257886 -0.000000 0.000000
LeftFoot -7.020733 0.596395 -3.576323
LeftToeBase 3.131799 -0.000000 -0.000000
RightUpLeg -26.001616 -6.171683 4.013523
RightLeg -3.180440 -0.000000 0.000000
RightFoot -7.611851 -6.230536 2.897869
RightToeBase 8.907473 -0.000000 -0.000000
1047
root 0.095299 32.333771 1.847448 35.177685 5.674098 -0.353309
Spine -39.295608 -3.424388 5.813010
Head 1.687829 -2.963643 -6.649576
LeftShoulder -22.429538 38.622300 23.532079
LeftArm 54.491018 -48.423634 -53.142018
LeftForeArm 100.660219 -0.000000 -15.891195
LeftHand -10.538172 -0.000000 61.316379
LeftHandThumb1 -26.253704 0.000000 33.147579
RightShoulder -20.145209 -37.014475 -25.852304
RightArm 41.721672 27.256229 39.795513
RightForeArm 9.681425 -0.000000 -7.185095
RightHand 3.104763 -0.000000 4.839125
RightHandThumb1 -24.326973 -0.000000 -32.862282
LeftUpLeg -26.935681 2.887624 3.543686
LeftLeg -1.253708 -0.000000 0.000000
LeftFoot -7.007726 0.565424 -3.626389
LeftToeBase 3.149625 -0.000000 -0.000000
RightUpLeg -25.931625 -6.237629 4.001513
RightLeg -3.175458 -0.000000 0.000000
RightFoot -7.619925 -6.259064 2.892264
RightToeBase 8.999195 -0.000000 -0.000000
1048
root 0.111017 32.335607 1.829626 35.044983 5.710126 -0.339163
Spine -39.240963 -3.460118 5.762830
Head 1.789957 -2.966839 -6.569289
LeftShoulder -22.343752 38.653872 23.560376
LeftArm 54.865333 -48.402847 -53.442088
LeftForeArm 100.624016 -0.000000 -16.060919
LeftHand -10.182268 -0.000000 61.133949
LeftHandThumb1 -26.253704 0.000000 33.147579
RightShoulder -20.062609 -36.942724 -25.892323
RightArm 41.846965 27.270223 40.013548
RightForeArm 9.560455 -0.000000 -7.159849
RightHand 3.073562 -0.000000 4.905355
RightHandThumb1 -24.326973 -0.000000 -32.862282
LeftUpLeg -26.843063 2.837320 3.536766
LeftLeg -1.243034 -0.000000 0.000000
LeftFoot -7.001814 0.507357 -3.681202
LeftToeBase 3.209174 -0.000000 -0.000000
RightUpLeg -25.823840 -6.334345 4.001793
RightLeg -3.199655 -0.000000 0.000000
RightFoot -7.562975 -6.253063 2.824998
RightToeBase 8.931714 -0.000000 -0.000000
1049
root 0.123303 32.336969 1.809986 34.938165 5.746106 -0.321598
Spine -39.213434 -3.532132 5.714266
Head 1.941520 -2.920231 -6.412882
LeftShoulder -22.270548 38.536411 23.645089
LeftArm 55.110555 -48.280696 -53.580885
LeftForeArm 101.201308 -0.000000 -16.301559
LeftHand -10.332015 0.000000 61.179846
LeftHandThumb1 -26.253704 0.000000 33.147579
RightShoulder -19.955644 -36.887079 -25.933034
RightArm 41.984371 27.262952 40.186879
RightForeArm 9.442059 0.000000 -7.185620
RightHand 3.103583 0.000000 5.007591
RightHandThumb1 -24.326973 -0.000000 -32.862282
LeftUpLeg -26.778510 2.797283 3.529342
LeftLeg -1.238704 -0.000000 0.000000
LeftFoot -6.972052 0.443708 -3.731065
LeftToeBase 3.186687 -0.000000 -0.000000
RightUpLeg -25.748995 -6.453869 4.018243
RightLeg -3.211360 -0.000000 0.000000
RightFoot -7.543655 -6.212953 2.844398
RightToeBase 8.933555 -0.000000 -0.000000
